<?xml version="1.0" standalone="no"?><!DOCTYPE svg PUBLIC "-//W3C//DTD SVG 1.1//EN" "http://www.w3.org/Graphics/SVG/1.1/DTD/svg11.dtd"><svg t="1526218654575" class="icon" style="" viewBox="0 0 1024 1024" version="1.1" xmlns="http://www.w3.org/2000/svg" p-id="5596" xmlns:xlink="http://www.w3.org/1999/xlink" width="200" height="200"><defs><style type="text/css"></style></defs><path d="M672.017812 145.524229c-43.244877-45.256695-100.849795-70.180316-162.20308-70.180316-61.352262 0-118.95718 24.923621-162.202057 70.180316-42.88058 44.876025-66.496417 104.442619-66.496417 167.727905 0 63.285285 23.615837 122.85188 66.496417 167.727905 11.970624 12.527302 25.046417 23.488947 38.99202 32.803071-47.223487 16.1058-100.818073 43.473074-147.735592 90.006853-77.78245 77.146977-117.352638 186.799243-117.61051 325.909396-0.030699 16.95412 13.68773 30.723715 30.64185 30.75646 0.020466 0 0.038886 0 0.058328 0 16.927514 0 30.66641-13.708196 30.698132-30.64185 0.291642-157.359777 54.953535-268.473323 162.46607-330.251279 81.517514-46.840771 165.102104-47.3821 166.381235-47.383123 0.045025 0 0.089028 0 0.134053 0 3.04331 0 5.982242-0.449231 8.759492-1.276062 57.370581-2.696409 110.872046-27.279269 151.621081-69.923466 42.88058-44.876025 66.495394-104.441596 66.495394-167.727905C738.514229 249.966849 714.898392 190.400254 672.017812 145.524229zM509.814732 489.762044c-92.248915 0-167.300163-79.181308-167.300163-176.50991s75.051248-176.50991 167.300163-176.50991 167.300163 79.182331 167.300163 176.50991S602.06467 489.762044 509.814732 489.762044z" p-id="5597"></path><path d="M761.574411 575.095462c-14.617914-8.59167-33.43138-3.706411-42.022027 10.91048s-3.706411 33.430357 10.909456 42.022027c0.240477 0.141216 25.18047 16.012679 50.718074 58.037776 25.971485 42.741411 56.931583 120.368318 56.931583 247.464867 0 16.95412 13.745035 30.699155 30.699155 30.699155s30.699155-13.745035 30.699155-30.699155C899.508786 659.322688 767.206683 578.405854 761.574411 575.095462z" p-id="5598"></path></svg>